<?xml version="1.0" standalone="no"?>
<!DOCTYPE svg PUBLIC "-//W3C//DTD SVG 20010904//EN"
 "http://www.w3.org/TR/2001/REC-SVG-20010904/DTD/svg10.dtd">
<svg version="1.0" xmlns="http://www.w3.org/2000/svg"
 width="512.000000pt" height="512.000000pt" viewBox="0 0 512.000000 512.000000"
 preserveAspectRatio="xMidYMid meet">
<metadata>
Created by potrace 1.16, written by Peter Selinger 2001-2019
</metadata>
<g transform="translate(0.000000,512.000000) scale(0.100000,-0.100000)"
fill="#000000" stroke="none">
<path d="M1311 4362 l-1195 -447 1251 -5 c1246 -5 1252 -5 1280 -26 43 -32 65
-81 60 -137 -5 -57 -30 -95 -78 -119 -32 -17 -109 -18 -1181 -18 l-1148 0 0
-37 0 -38 228 -84 c125 -46 262 -97 305 -113 l77 -30 0 -562 c0 -527 1 -566
19 -618 79 -229 355 -410 796 -523 266 -68 504 -95 835 -95 331 0 569 27 835
95 441 113 717 294 796 523 18 52 19 91 19 617 0 527 1 563 18 570 9 4 166 62
347 130 518 193 489 180 519 223 37 53 37 131 0 184 -31 45 120 -15 -1348 533
-973 363 -1147 425 -1190 424 -42 0 -269 -82 -1245 -447z"/>
</g>
</svg>
